<svg width="16" height="16" viewBox="0 0 16 16" fill="none" xmlns="http://www.w3.org/2000/svg">
<path id="Shape" fill-rule="evenodd" clip-rule="evenodd" d="M12 4C12 1.79086 10.2091 0 8 0C5.79086 0 4 1.79086 4 4C4 6.20914 5.79086 8 8 8H7.2C3.22355 8 0 11.2235 0 15.2C0 15.6418 0.358172 16 0.8 16H15.2C15.6418 16 16 15.6418 16 15.2C16 11.2235 12.7765 8 8.8 8H8C9.06087 8 10.0783 7.57857 10.8284 6.82843C11.5786 6.07828 12 5.06087 12 4ZM7.20001 9.6C4.4157 9.59929 2.05376 11.6443 1.65601 14.4H14.344C13.9462 11.6443 11.5843 9.59929 8.80001 9.6H7.20001ZM5.6 4C5.6 5.32548 6.67452 6.4 8 6.4C8.63652 6.4 9.24697 6.14714 9.69706 5.69706C10.1471 5.24697 10.4 4.63652 10.4 4C10.4 2.67452 9.32548 1.6 8 1.6C6.67452 1.6 5.6 2.67452 5.6 4Z" fill="white"/>
</svg>
