<svg width="18" height="18" viewBox="0 0 18 18" fill="none" xmlns="http://www.w3.org/2000/svg">
<path d="M1.5 9C1.5 5.4645 1.5 3.69675 2.598 2.598C3.6975 1.5 5.4645 1.5 9 1.5C12.5355 1.5 14.3032 1.5 15.4012 2.598C16.5 3.6975 16.5 5.4645 16.5 9C16.5 12.5355 16.5 14.3032 15.4012 15.4012C14.304 16.5 12.5355 16.5 9 16.5C5.4645 16.5 3.69675 16.5 2.598 15.4012C1.5 14.304 1.5 12.5355 1.5 9Z" stroke="#AFBAC3" stroke-width="1.5"/>
<path d="M11.25 9H9M9 9H6.75M9 9V6.75M9 9V11.25" stroke="#AFBAC3" stroke-width="1.5" stroke-linecap="round"/>
</svg>
