<svg width="16" height="16" viewBox="0 0 14 14" fill="none" xmlns="http://www.w3.org/2000/svg">
<path fill-rule="evenodd" clip-rule="evenodd" d="M13.6667 2.33325V11.6666C13.6667 12.7712 12.7712 13.6666 11.6667 13.6666H2.33333C1.22876 13.6666 0.333328 12.7712 0.333328 11.6666V2.33325C0.333328 1.22868 1.22876 0.333252 2.33333 0.333252H11.6667C12.7712 0.333252 13.6667 1.22868 13.6667 2.33325ZM11 6.99992C11 7.36811 10.7015 7.66658 10.3333 7.66658H7.66666V10.3333C7.66666 10.7014 7.36819 10.9999 7 10.9999C6.6318 10.9999 6.33333 10.7014 6.33333 10.3333V7.66658H3.66666C3.29847 7.66658 2.99999 7.36811 2.99999 6.99992C2.99999 6.63173 3.29847 6.33325 3.66666 6.33325H6.33333V3.66659C6.33333 3.2984 6.6318 2.99992 7 2.99992C7.36819 2.99992 7.66666 3.2984 7.66666 3.66659V6.33325H10.3333C10.7015 6.33325 11 6.63173 11 6.99992ZM11.6667 1.66659C12.0349 1.66659 12.3333 1.96506 12.3333 2.33325V11.6666C12.3333 12.0348 12.0349 12.3333 11.6667 12.3333H2.33333C1.96514 12.3333 1.66666 12.0348 1.66666 11.6666V2.33325C1.66666 1.96506 1.96514 1.66659 2.33333 1.66659H11.6667Z" fill="#231F20"/>
</svg>
