<svg width="14" height="14" viewBox="0 0 14 14" fill="none" xmlns="http://www.w3.org/2000/svg">
<path fill-rule="evenodd" clip-rule="evenodd" d="M11.6667 2.33325H11V0.999919C11 0.631729 10.7015 0.333252 10.3333 0.333252C9.96515 0.333252 9.66668 0.631729 9.66668 0.999919V2.33325H4.33334V0.999919C4.33334 0.631729 4.03487 0.333252 3.66668 0.333252C3.29849 0.333252 3.00001 0.631729 3.00001 0.999919V2.33325H2.33334C1.22877 2.33325 0.333344 3.22868 0.333344 4.33325V11.6666C0.333344 12.7712 1.22877 13.6666 2.33334 13.6666H11.6667C12.7712 13.6666 13.6667 12.7712 13.6667 11.6666V4.33325C13.6667 3.22868 12.7712 2.33325 11.6667 2.33325ZM1.66668 4.33325C1.66668 3.96506 1.96515 3.66659 2.33334 3.66659H11.6667C12.0349 3.66659 12.3333 3.96506 12.3333 4.33325V4.99992H1.66668V4.33325ZM11.6667 12.3333C12.0349 12.3333 12.3333 12.0348 12.3333 11.6666V6.33325H1.66668V11.6666C1.66668 12.0348 1.96515 12.3333 2.33334 12.3333H11.6667Z" fill="#231F20"/>
</svg>
