<svg width="16" height="16" viewBox="0 0 15 18" fill="none" xmlns="http://www.w3.org/2000/svg">
<path fill-rule="evenodd" clip-rule="evenodd" d="M9.936 1.45306C9.92631 1.76914 10.0964 2.06348 10.375 2.21296L12.875 3.87963C13.0092 3.97362 13.1695 4.02317 13.3334 4.02129C13.6988 4.01847 14.0198 3.77785 14.125 3.42784C14.2302 3.07783 14.0951 2.70013 13.7917 2.49629L11.2917 0.829627C11.0454 0.631253 10.7081 0.589368 10.4208 0.72149C10.1335 0.853613 9.9457 1.13697 9.936 1.45306ZM7.5 2.35465C3.35786 2.35465 0 5.71252 0 9.85465C0 13.9968 3.35786 17.3547 7.5 17.3547C11.6421 17.3547 15 13.9968 15 9.85465C15 5.71252 11.6421 2.35465 7.5 2.35465ZM7.5 15.688C4.27834 15.688 1.66667 13.0763 1.66667 9.85466C1.66667 6.63299 4.27834 4.02132 7.5 4.02132C10.7217 4.02132 13.3333 6.63299 13.3333 9.85466C13.3333 13.0763 10.7217 15.688 7.5 15.688ZM0.975005 3.64629C0.723965 3.26389 0.828109 2.75061 1.20834 2.49629L3.70834 0.829627C3.95461 0.631253 4.29195 0.589368 4.57926 0.72149C4.86657 0.853613 5.05434 1.13697 5.06403 1.45306C5.07373 1.76914 4.90368 2.06348 4.62501 2.21296L2.12501 3.87963C1.9908 3.97362 1.83051 4.02317 1.66667 4.02129C1.38791 4.01985 1.12832 3.87911 0.975005 3.64629ZM10.0048 11.5213C10.0048 11.2991 9.91611 11.0861 9.75835 10.9297L8.33335 9.51299V6.52132C8.33335 6.06108 7.96025 5.68799 7.50001 5.68799C7.03978 5.68799 6.66668 6.06108 6.66668 6.52132V9.85466C6.6654 10.0762 6.75236 10.2891 6.90835 10.4463L8.57501 12.113C8.73149 12.2707 8.94448 12.3595 9.16668 12.3595C9.38888 12.3595 9.60188 12.2707 9.75835 12.113C9.91611 11.9565 10.0048 11.7435 10.0048 11.5213Z" fill="#31393C"/>
</svg>
