<svg width="16" height="16" viewBox="0 0 16 16" fill="none" xmlns="http://www.w3.org/2000/svg">
<path d="M15.7635 14.628C15.9149 14.7782 16 14.9826 16 15.1958C16 15.409 15.9149 15.6133 15.7635 15.7635C15.6134 15.9149 15.409 16 15.1958 16C14.9826 16 14.7783 15.9149 14.6282 15.7635L8 9.12677L1.37184 15.7635C1.22172 15.9149 1.01736 16 0.804172 16C0.590986 16 0.386628 15.9149 0.236502 15.7635C0.0851392 15.6133 0 15.409 0 15.1958C0 14.9826 0.0851392 14.7782 0.236502 14.628L6.87265 7.99933L0.236502 1.37061C0.0336923 1.16779 -0.0455138 0.87216 0.0287196 0.595094C0.102953 0.318028 0.319348 0.101615 0.59639 0.0273756C0.873433 -0.046864 1.16903 0.0323487 1.37184 0.235175L8 6.87189L14.6282 0.235175C14.9417 -0.0783673 15.45 -0.0783673 15.7635 0.235175C16.077 0.548717 16.077 1.05707 15.7635 1.37061L9.12735 7.99933L15.7635 14.628Z" fill="#231F20"/>
</svg>
