<svg width="14" height="14" viewBox="0 0 14 14" fill="none" xmlns="http://www.w3.org/2000/svg">
<path fill-rule="evenodd" clip-rule="evenodd" d="M11.7133 11.7134C9.09747 14.2398 4.93943 14.2037 2.36788 11.6322C-0.203683 9.06059 -0.239815 4.90256 2.28667 2.2867C4.90253 -0.239785 9.06056 -0.203653 11.6321 2.36791C14.2037 4.93947 14.2398 9.0975 11.7133 11.7134ZM9.84 5.1067L7.94 7.00003L9.84 8.89336C9.96621 9.01854 10.0372 9.18894 10.0372 9.3667C10.0372 9.54445 9.96621 9.71485 9.84 9.84003C9.71419 9.96482 9.54387 10.0344 9.36667 10.0334C9.18946 10.0344 9.01915 9.96482 8.89333 9.84003L7 7.94003L5.10667 9.84003C4.98085 9.96482 4.81053 10.0344 4.63333 10.0334C4.45613 10.0344 4.28581 9.96482 4.16 9.84003C4.03379 9.71485 3.9628 9.54445 3.9628 9.3667C3.9628 9.18894 4.03379 9.01854 4.16 8.89336L6.06 7.00003L4.16 5.1067C3.99089 4.93759 3.92485 4.69111 3.98675 4.46011C4.04864 4.22911 4.22908 4.04868 4.46008 3.98678C4.69108 3.92488 4.93756 3.99092 5.10667 4.16003L7 6.06003L8.89333 4.16003C9.06244 3.99092 9.30892 3.92488 9.53992 3.98678C9.77092 4.04868 9.95135 4.22911 10.0133 4.46011C10.0751 4.69111 10.0091 4.93759 9.84 5.1067ZM3.23226 3.22949C5.31412 1.14686 8.68993 1.14561 10.7733 3.2267C11.7831 4.22265 12.3515 5.58176 12.3515 7.00003C12.3515 8.4183 11.7831 9.77741 10.7733 10.7734C8.68993 12.8545 5.31412 12.8532 3.23226 10.7706C1.1504 8.68793 1.1504 5.31213 3.23226 3.22949Z" fill="#AFBAC3"/>
</svg>
