<svg width="16" height="16" viewBox="0 0 16 16" fill="none" xmlns="http://www.w3.org/2000/svg">
<g id="Iconography - Caesarzkn">
<g id="Group">
<g id="Layer_67">
<path id="Shape" fill-rule="evenodd" clip-rule="evenodd" d="M12.7133 12.7134C10.0975 15.2398 5.93943 15.2037 3.36788 12.6322C0.796317 10.0606 0.760185 5.90256 3.28667 3.2867C5.90253 0.760215 10.0606 0.796347 12.6321 3.36791C15.2037 5.93947 15.2398 10.0975 12.7133 12.7134ZM10.84 6.1067L8.94 8.00003L10.84 9.89336C10.9662 10.0185 11.0372 10.1889 11.0372 10.3667C11.0372 10.5445 10.9662 10.7149 10.84 10.84C10.7142 10.9648 10.5439 11.0344 10.3667 11.0334C10.1895 11.0344 10.0191 10.9648 9.89333 10.84L8 8.94003L6.10667 10.84C5.98085 10.9648 5.81053 11.0344 5.63333 11.0334C5.45613 11.0344 5.28581 10.9648 5.16 10.84C5.03379 10.7149 4.9628 10.5445 4.9628 10.3667C4.9628 10.1889 5.03379 10.0185 5.16 9.89336L7.06 8.00003L5.16 6.1067C4.99089 5.93759 4.92485 5.69111 4.98675 5.46011C5.04864 5.22911 5.22908 5.04868 5.46008 4.98678C5.69108 4.92488 5.93756 4.99092 6.10667 5.16003L8 7.06003L9.89333 5.16003C10.0624 4.99092 10.3089 4.92488 10.5399 4.98678C10.7709 5.04868 10.9514 5.22911 11.0133 5.46011C11.0751 5.69111 11.0091 5.93759 10.84 6.1067ZM4.23226 4.22949C6.31412 2.14686 9.68993 2.14561 11.7733 4.2267C12.7831 5.22265 13.3515 6.58176 13.3515 8.00003C13.3515 9.4183 12.7831 10.7774 11.7733 11.7734C9.68993 13.8545 6.31412 13.8532 4.23226 11.7706C2.1504 9.68793 2.1504 6.31213 4.23226 4.22949Z" fill="#AFBAC3"/>
</g>
</g>
</g>
</svg>
