<svg width="21" height="20" viewBox="0 0 21 20" fill="none" xmlns="http://www.w3.org/2000/svg">
<path fill-rule="evenodd" clip-rule="evenodd" d="M16 17V14C16 13.4477 15.5523 13 15 13C14.4477 13 14 13.4477 14 14V17C14 17.5523 13.5523 18 13 18H3C2.44772 18 2 17.5523 2 17V3C2 2.44772 2.44772 2 3 2H13C13.5523 2 14 2.44772 14 3V6C14 6.55228 14.4477 7 15 7C15.5523 7 16 6.55228 16 6V3C16 1.34315 14.6569 0 13 0H3C1.34315 0 0 1.34315 0 3V17C0 18.6569 1.34315 20 3 20H13C14.6569 20 16 18.6569 16 17ZM17.71 7.29L19.71 9.29C19.8993 9.47777 20.0058 9.73336 20.0058 10C20.0058 10.2666 19.8993 10.5222 19.71 10.71L17.71 12.71C17.5222 12.8993 17.2666 13.0058 17 13.0058C16.7334 13.0058 16.4778 12.8993 16.29 12.71C16.1007 12.5222 15.9942 12.2666 15.9942 12C15.9942 11.7334 16.1007 11.4778 16.29 11.29L16.59 11H10C9.44771 11 9 10.5523 9 10C9 9.44771 9.44771 9 10 9H16.59L16.29 8.71C15.8979 8.31788 15.8979 7.68212 16.29 7.29C16.6821 6.89788 17.3179 6.89788 17.71 7.29Z" fill="#231F20"/>
</svg>
