<svg width="16" height="16" viewBox="0 0 16 16" fill="none" xmlns="http://www.w3.org/2000/svg">
<path id="Shape" fill-rule="evenodd" clip-rule="evenodd" d="M16 13.6C16 14.9255 14.9255 16 13.6 16H2.4C1.07452 16 0 14.9255 0 13.6V2.4C0 1.07452 1.07452 0 2.4 0H13.6C14.9255 0 16 1.07452 16 2.4V13.6ZM7.2 3.2H12C12.4418 3.2 12.8 3.55817 12.8 4C12.8 4.44183 12.4418 4.8 12 4.8H7.2C6.75817 4.8 6.4 4.44183 6.4 4C6.4 3.55817 6.75817 3.2 7.2 3.2ZM4.80001 4.00004C4.79875 3.89549 4.77701 3.79221 4.73601 3.69604C4.6955 3.59909 4.63868 3.5098 4.56801 3.43204C4.49025 3.36137 4.40096 3.30455 4.30401 3.26404C4.0061 3.13876 3.66206 3.20504 3.43201 3.43204C3.36135 3.5098 3.30453 3.59909 3.26401 3.69604C3.22302 3.79221 3.20128 3.89549 3.20001 4.00004C3.19878 4.21268 3.28226 4.41706 3.43201 4.56804C3.58532 4.71422 3.7882 4.79709 4.00001 4.80004C4.10495 4.80274 4.20907 4.78082 4.30401 4.73604C4.40096 4.69552 4.49025 4.6387 4.56801 4.56804C4.7142 4.41473 4.79707 4.21185 4.80001 4.00004ZM4.30401 7.26404C4.0061 7.13876 3.66206 7.20504 3.43201 7.43204C3.35793 7.50713 3.30066 7.59712 3.26401 7.69604C3.22302 7.79221 3.20128 7.89549 3.20001 8.00004C3.19878 8.21268 3.28226 8.41706 3.43201 8.56804C3.58532 8.71422 3.7882 8.79709 4.00001 8.80004C4.10456 8.79877 4.20784 8.77703 4.30401 8.73604C4.40096 8.69552 4.49025 8.6387 4.56801 8.56804L4.66401 8.44804C4.69429 8.40344 4.7185 8.35501 4.73601 8.30404C4.76465 8.25963 4.78624 8.21105 4.80001 8.16004C4.80394 8.10677 4.80394 8.0533 4.80001 8.00004C4.79707 7.78822 4.7142 7.58534 4.56801 7.43204C4.49025 7.36137 4.40096 7.30455 4.30401 7.26404ZM7.2 7.2H12C12.4418 7.2 12.8 7.55817 12.8 8C12.8 8.44183 12.4418 8.8 12 8.8H7.2C6.75817 8.8 6.4 8.44183 6.4 8C6.4 7.55817 6.75817 7.2 7.2 7.2ZM4.56799 11.432C4.49023 11.3614 4.40094 11.3045 4.30399 11.264C4.00607 11.1388 3.66204 11.205 3.43199 11.432C3.35916 11.5081 3.30207 11.5978 3.26399 11.696C3.17841 11.8897 3.17841 12.1104 3.26399 12.304C3.30207 12.4022 3.35916 12.492 3.43199 12.568C3.5853 12.7142 3.78818 12.7971 3.99999 12.8C4.10453 12.7988 4.20781 12.777 4.30399 12.736C4.40094 12.6955 4.49023 12.6387 4.56799 12.568C4.64082 12.492 4.69792 12.4022 4.73599 12.304C4.82157 12.1104 4.82157 11.8897 4.73599 11.696C4.69792 11.5978 4.64082 11.5081 4.56799 11.432ZM7.2 11.2H12C12.4418 11.2 12.8 11.5582 12.8 12C12.8 12.4418 12.4418 12.8 12 12.8H7.2C6.75817 12.8 6.4 12.4418 6.4 12C6.4 11.5582 6.75817 11.2 7.2 11.2ZM13.6 1.6C14.0418 1.6 14.4 1.95817 14.4 2.4V13.6C14.4 14.0418 14.0418 14.4 13.6 14.4H2.4C1.95817 14.4 1.6 14.0418 1.6 13.6V2.4C1.6 1.95817 1.95817 1.6 2.4 1.6H13.6Z" fill="#0340BB"/>
</svg>
