<svg width="16" height="12" fill="#BFFF1D" color="#BFFF1D" viewBox="0 0 16 12" xmlns="http://www.w3.org/2000/svg">
<path id="Shape" fill-rule="evenodd" clip-rule="evenodd" d="M13.6 0H2.4C1.07452 0 0 1.00736 0 2.25V9.75C0 10.9926 1.07452 12 2.4 12H13.6C14.9255 12 16 10.9926 16 9.75V2.25C16 1.00736 14.9255 0 13.6 0ZM14.4 9.75C14.4 10.1642 14.0418 10.5 13.6 10.5H2.39998C1.95815 10.5 1.59998 10.1642 1.59998 9.75V2.25C1.59998 1.83579 1.95815 1.5 2.39998 1.5H13.6C14.0418 1.5 14.4 1.83579 14.4 2.25V9.75ZM9.59998 5.835C10.0381 5.46166 10.6079 5.25331 11.2 5.25C12.5255 5.25 13.6 6.25736 13.6 7.5C13.6 8.74264 12.5255 9.75 11.2 9.75C10.6079 9.74669 10.0381 9.53834 9.59998 9.165C9.16187 9.53834 8.59202 9.74669 7.99998 9.75C6.67449 9.75 5.59998 8.74264 5.59998 7.5C5.59998 6.25736 6.67449 5.25 7.99998 5.25C8.59202 5.25331 9.16187 5.46166 9.59998 5.835ZM7.99995 8.25C7.55812 8.25 7.19995 7.91421 7.19995 7.5C7.19995 7.08579 7.55812 6.75 7.99995 6.75C8.44178 6.75 8.79995 7.08579 8.79995 7.5C8.79995 7.91421 8.44178 8.25 7.99995 8.25ZM10.4 7.5C10.4 7.91421 10.7582 8.25 11.2 8.25C11.6419 8.25 12 7.91421 12 7.5C12 7.08579 11.6419 6.75 11.2 6.75C10.7582 6.75 10.4 7.08579 10.4 7.5Z" fill="#0340BB"/>
</svg>
