<svg width="8" height="12" viewBox="0 0 8 12" fill="none" xmlns="http://www.w3.org/2000/svg">
<path id="Vector" d="M0.8 12C0.588686 11.998 0.386804 11.9362 0.23737 11.8277C0.0879354 11.7193 0.00276263 11.5727 0 11.4194V0.580645C0 0.426648 0.0842859 0.278959 0.234315 0.170067C0.384344 0.0611749 0.587827 0 0.8 0C1.01217 0 1.21566 0.0611749 1.36569 0.170067C1.51571 0.278959 1.6 0.426648 1.6 0.580645V11.4194C1.59724 11.5727 1.51206 11.7193 1.36263 11.8277C1.2132 11.9362 1.01131 11.998 0.8 12ZM7.2 12C6.98869 11.998 6.7868 11.9362 6.63737 11.8277C6.48794 11.7193 6.40276 11.5727 6.4 11.4194V0.580645C6.4 0.426648 6.48429 0.278959 6.63432 0.170067C6.78434 0.0611749 6.98783 0 7.2 0C7.41217 0 7.61566 0.0611749 7.76569 0.170067C7.91571 0.278959 8 0.426648 8 0.580645V11.4194C7.99724 11.5727 7.91206 11.7193 7.76263 11.8277C7.6132 11.9362 7.41131 11.998 7.2 12Z" fill="white"/>
</svg>
