<svg width="14" height="14" viewBox="0 0 14 14" fill="none" xmlns="http://www.w3.org/2000/svg">
<path fill-rule="evenodd" clip-rule="evenodd" d="M3.53339 0.720014L12.1267 5.07335C13.4001 5.72001 13.5867 6.60001 13.5867 7.05335C13.5867 7.50668 13.4001 8.33335 12.1267 9.00001L3.53339 13.34C3.17107 13.5303 2.76923 13.633 2.36005 13.64C2.01272 13.645 1.67092 13.5526 1.37339 13.3733C0.720419 12.9249 0.354859 12.1633 0.413387 11.3733V2.72001C0.352066 1.92952 0.718262 1.16661 1.37339 0.720014C2.04313 0.339585 2.86364 0.339585 3.53339 0.720014ZM2.93339 12.1333L11.5201 7.78001C11.9734 7.54668 12.2534 7.25335 12.2534 7.02001C12.2534 6.78668 11.9734 6.49335 11.5201 6.26668L2.90672 1.91335C2.73065 1.81616 2.53434 1.76138 2.33339 1.75335C2.23989 1.75593 2.1484 1.78109 2.06672 1.82668C1.82646 2.03567 1.7064 2.35081 1.74672 2.66668V11.3733C1.7064 11.6892 1.82646 12.0044 2.06672 12.2133C2.35075 12.3337 2.67618 12.3036 2.93339 12.1333Z" fill="white"/>
</svg>
