<svg width="16" height="16" viewBox="0 0 14 14" fill="none" xmlns="http://www.w3.org/2000/svg">
<path fill-rule="evenodd" clip-rule="evenodd" d="M13.6667 11.6666C13.6667 12.7712 12.7712 13.6666 11.6667 13.6666H2.33334C1.22877 13.6666 0.333336 12.7712 0.333336 11.6666V2.33325C0.333336 1.22868 1.22877 0.333252 2.33334 0.333252H11.6667C12.7712 0.333252 13.6667 1.22868 13.6667 2.33325V11.6666ZM6.33334 2.99992H10.3333C10.7015 2.99992 11 3.2984 11 3.66659C11 4.03478 10.7015 4.33325 10.3333 4.33325H6.33334C5.96515 4.33325 5.66667 4.03478 5.66667 3.66659C5.66667 3.2984 5.96515 2.99992 6.33334 2.99992ZM4.33334 3.66659C4.33228 3.57947 4.31416 3.4934 4.28 3.41325C4.24624 3.33246 4.19889 3.25805 4.14 3.19325C4.0752 3.13436 4.00079 3.08701 3.92 3.05325C3.67174 2.94885 3.38504 3.00409 3.19334 3.19325C3.13445 3.25805 3.0871 3.33246 3.05334 3.41325C3.01918 3.4934 3.00106 3.57947 3 3.66659C2.99898 3.84379 3.06854 4.01411 3.19334 4.13992C3.32109 4.26174 3.49016 4.3308 3.66667 4.33325C3.75412 4.33551 3.84088 4.31724 3.92 4.27992C4.00079 4.24616 4.0752 4.19881 4.14 4.13992C4.26183 4.01216 4.33088 3.8431 4.33334 3.66659ZM3.92 6.38659C3.67174 6.28219 3.38504 6.33742 3.19334 6.52659C3.1316 6.58916 3.08388 6.66416 3.05334 6.74659C3.01918 6.82673 3.00106 6.9128 3 6.99992C2.99898 7.17712 3.06854 7.34744 3.19334 7.47325C3.32109 7.59507 3.49016 7.66413 3.66667 7.66659C3.75379 7.66553 3.83985 7.64741 3.92 7.61325C4.00079 7.57949 4.0752 7.53214 4.14 7.47325L4.22 7.37325C4.24523 7.33609 4.26541 7.29573 4.28 7.25325C4.30387 7.21624 4.32186 7.17576 4.33334 7.13325C4.33661 7.08887 4.33661 7.0443 4.33334 6.99992C4.33088 6.82341 4.26183 6.65434 4.14 6.52659C4.0752 6.4677 4.00079 6.42035 3.92 6.38659ZM6.33334 6.33325H10.3333C10.7015 6.33325 11 6.63173 11 6.99992C11 7.36811 10.7015 7.66659 10.3333 7.66659H6.33334C5.96515 7.66659 5.66667 7.36811 5.66667 6.99992C5.66667 6.63173 5.96515 6.33325 6.33334 6.33325ZM4.14 9.85992C4.0752 9.80103 4.00079 9.75368 3.92 9.71992C3.67174 9.61552 3.38504 9.67076 3.19334 9.85992C3.13264 9.92332 3.08507 9.99808 3.05334 10.0799C2.98202 10.2413 2.98202 10.4252 3.05334 10.5866C3.08507 10.6684 3.13264 10.7432 3.19334 10.8066C3.32109 10.9284 3.49016 10.9975 3.66667 10.9999C3.75379 10.9989 3.83985 10.9807 3.92 10.9466C4.00079 10.9128 4.0752 10.8655 4.14 10.8066C4.2007 10.7432 4.24827 10.6684 4.28 10.5866C4.35132 10.4252 4.35132 10.2413 4.28 10.0799C4.24827 9.99808 4.2007 9.92332 4.14 9.85992ZM6.33334 9.66658H10.3333C10.7015 9.66658 11 9.96506 11 10.3333C11 10.7014 10.7015 10.9999 10.3333 10.9999H6.33334C5.96515 10.9999 5.66667 10.7014 5.66667 10.3333C5.66667 9.96506 5.96515 9.66658 6.33334 9.66658ZM11.6667 1.66659C12.0349 1.66659 12.3333 1.96506 12.3333 2.33325V11.6666C12.3333 12.0348 12.0349 12.3333 11.6667 12.3333H2.33334C1.96515 12.3333 1.66667 12.0348 1.66667 11.6666V2.33325C1.66667 1.96506 1.96515 1.66659 2.33334 1.66659H11.6667Z" fill="#231F20"/>
</svg>
