<svg width="16" height="16" viewBox="0 0 16 16" fill="none" xmlns="http://www.w3.org/2000/svg">
<path fill-rule="evenodd" clip-rule="evenodd" d="M2.66667 0.373291H9.33334C10.4611 0.398792 11.3557 1.33208 11.3333 2.45996V12.2466C11.3361 12.7905 11.0207 13.2858 10.5267 13.5133C10.3583 13.5865 10.1769 13.6251 9.99334 13.6266C9.66906 13.6246 9.35736 13.5009 9.12 13.28L6 10.44L2.88 13.28C2.49558 13.623 1.94792 13.7138 1.47334 13.5133C0.979304 13.2858 0.663878 12.7905 0.666669 12.2466V2.45996C0.644333 1.33208 1.53886 0.398792 2.66667 0.373291ZM6.88667 9.45329L10 12.2933V2.45996C10.0191 2.0695 9.72322 1.73511 9.33334 1.70662H2.66667C2.27679 1.73511 1.98086 2.0695 2 2.45996V12.2466L5.08667 9.45329C5.59615 8.98719 6.37719 8.98719 6.88667 9.45329Z" fill="#231F20"/>
</svg>
