<svg width="16" height="16" viewBox="0 0 16 16" fill="none" xmlns="http://www.w3.org/2000/svg">
<g id="Iconography - Caesarzkn">
<g id="Group">
<g id="Layer_115">
<path id="Shape" fill-rule="evenodd" clip-rule="evenodd" d="M4.53333 1.71989L13.1267 6.07323C14.4 6.71989 14.5867 7.59989 14.5867 8.05323C14.5867 8.50656 14.4 9.33323 13.1267 9.99989L4.53333 14.3399C4.17101 14.5302 3.76917 14.6329 3.35999 14.6399C3.01266 14.6449 2.67086 14.5525 2.37333 14.3732C1.72036 13.9248 1.3548 13.1632 1.41333 12.3732V3.71989C1.352 2.9294 1.7182 2.16649 2.37333 1.71989C3.04307 1.33946 3.86358 1.33946 4.53333 1.71989ZM3.93333 13.1332L12.52 8.77989C12.9733 8.54656 13.2533 8.25323 13.2533 8.01989C13.2533 7.78656 12.9733 7.49323 12.52 7.26656L3.90666 2.91323C3.73059 2.81604 3.53428 2.76126 3.33333 2.75323C3.23982 2.75581 3.14833 2.78097 3.06666 2.82656C2.8264 3.03554 2.70634 3.35069 2.74666 3.66656V12.3732C2.70634 12.6891 2.8264 13.0042 3.06666 13.2132C3.35069 13.3335 3.67612 13.3035 3.93333 13.1332Z" fill="white"/>
</g>
</g>
</g>
</svg>
