<svg width="24" height="24" viewBox="0 0 24 24" fill="none" xmlns="http://www.w3.org/2000/svg">
<rect x="0.5" y="0.5" width="23" height="23" rx="4.5" fill="white" stroke="#989898"/>
<path fill-rule="evenodd" clip-rule="evenodd" d="M8.66663 5.33337H9.33329C10.4379 5.33337 11.3333 6.2288 11.3333 7.33337V16.6667C11.3333 17.7713 10.4379 18.6667 9.33329 18.6667H8.66663C7.56206 18.6667 6.66663 17.7713 6.66663 16.6667V7.33337C6.66663 6.2288 7.56206 5.33337 8.66663 5.33337ZM9.33329 17.3334C9.70148 17.3334 9.99996 17.0349 9.99996 16.6667V7.33337C9.99996 6.96518 9.70148 6.66671 9.33329 6.66671H8.66663C8.29844 6.66671 7.99996 6.96518 7.99996 7.33337V16.6667C7.99996 17.0349 8.29844 17.3334 8.66663 17.3334H9.33329ZM15.3333 5.33337H14.6666C13.5621 5.33337 12.6666 6.2288 12.6666 7.33337V16.6667C12.6666 17.7713 13.5621 18.6667 14.6666 18.6667H15.3333C16.4379 18.6667 17.3333 17.7713 17.3333 16.6667V7.33337C17.3333 6.2288 16.4379 5.33337 15.3333 5.33337ZM15.3333 17.3334C15.7015 17.3334 16 17.0349 16 16.6667V7.33337C16 6.96518 15.7015 6.66671 15.3333 6.66671H14.6666C14.2984 6.66671 14 6.96518 14 7.33337V16.6667C14 17.0349 14.2984 17.3334 14.6666 17.3334H15.3333Z" fill="#989898"/>
</svg>
