<svg width="12" height="14" viewBox="0 0 12 14" fill="none" xmlns="http://www.w3.org/2000/svg">
<path fill-rule="evenodd" clip-rule="evenodd" d="M2.6665 0.333374H3.33317C4.43774 0.333374 5.33317 1.2288 5.33317 2.33337V11.6667C5.33317 12.7713 4.43774 13.6667 3.33317 13.6667H2.6665C1.56193 13.6667 0.666504 12.7713 0.666504 11.6667V2.33337C0.666504 1.2288 1.56193 0.333374 2.6665 0.333374ZM3.33317 12.3334C3.70136 12.3334 3.99984 12.0349 3.99984 11.6667V2.33337C3.99984 1.96518 3.70136 1.66671 3.33317 1.66671H2.6665C2.29831 1.66671 1.99984 1.96518 1.99984 2.33337V11.6667C1.99984 12.0349 2.29831 12.3334 2.6665 12.3334H3.33317ZM9.33317 0.333374H8.6665C7.56193 0.333374 6.6665 1.2288 6.6665 2.33337V11.6667C6.6665 12.7713 7.56193 13.6667 8.6665 13.6667H9.33317C10.4377 13.6667 11.3332 12.7713 11.3332 11.6667V2.33337C11.3332 1.2288 10.4377 0.333374 9.33317 0.333374ZM9.33317 12.3334C9.70136 12.3334 9.99984 12.0349 9.99984 11.6667V2.33337C9.99984 1.96518 9.70136 1.66671 9.33317 1.66671H8.6665C8.29831 1.66671 7.99984 1.96518 7.99984 2.33337V11.6667C7.99984 12.0349 8.29831 12.3334 8.6665 12.3334H9.33317Z" fill="white"/>
</svg>
