<svg width="16" height="16" viewBox="0 0 16 16" fill="none" xmlns="http://www.w3.org/2000/svg">
<g id="Iconography - Caesarzkn">
<g id="Group">
<g id="Layer_36">
<path id="Shape" fill-rule="evenodd" clip-rule="evenodd" d="M7.99998 1.33325C4.31808 1.33325 1.33331 4.31802 1.33331 7.99992C1.33331 11.6818 4.31808 14.6666 7.99998 14.6666C11.6819 14.6666 14.6666 11.6818 14.6666 7.99992C14.6666 6.23181 13.9643 4.53612 12.714 3.28587C11.4638 2.03563 9.76809 1.33325 7.99998 1.33325ZM7.99998 13.3333C5.05446 13.3333 2.66665 10.9454 2.66665 7.99992C2.66665 5.0544 5.05446 2.66659 7.99998 2.66659C10.9455 2.66659 13.3333 5.0544 13.3333 7.99992C13.3333 9.41441 12.7714 10.771 11.7712 11.7712C10.771 12.7713 9.41447 13.3333 7.99998 13.3333ZM9.99998 9.33325C10.2987 9.34885 10.5713 9.1635 10.6666 8.87992C10.7224 8.70754 10.7055 8.5199 10.62 8.36019C10.5345 8.20047 10.3877 8.08244 10.2133 8.03325L8.66665 7.51992V4.66659C8.66665 4.2984 8.36817 3.99992 7.99998 3.99992C7.63179 3.99992 7.33331 4.2984 7.33331 4.66659V7.99992C7.33257 8.28653 7.51511 8.54154 7.78665 8.63325L9.78665 9.29992C9.85601 9.32023 9.92772 9.33144 9.99998 9.33325Z" fill="#231F20"/>
</g>
</g>
</g>
</svg>
