<svg width="16" height="16" viewBox="0 0 14 14" fill="none" xmlns="http://www.w3.org/2000/svg">
<path fill-rule="evenodd" clip-rule="evenodd" d="M11.6668 0.333374H2.3335C1.22893 0.333374 0.333496 1.2288 0.333496 2.33337V3.66671C0.333496 4.0349 0.631973 4.33337 1.00016 4.33337H1.66683V11.6667C1.66683 12.7713 2.56226 13.6667 3.66683 13.6667H10.3335C11.4381 13.6667 12.3335 12.7713 12.3335 11.6667V4.33337H13.0002C13.3684 4.33337 13.6668 4.0349 13.6668 3.66671V2.33337C13.6668 1.2288 12.7714 0.333374 11.6668 0.333374ZM11.0002 11.6667C11.0002 12.0349 10.7017 12.3334 10.3335 12.3334H3.66683C3.29864 12.3334 3.00016 12.0349 3.00016 11.6667V4.33337H11.0002V11.6667ZM1.66683 3.00004H12.3335V2.33337C12.3335 1.96518 12.035 1.66671 11.6668 1.66671H2.3335C1.96531 1.66671 1.66683 1.96518 1.66683 2.33337V3.00004ZM4.3335 10.3334V6.33337C4.3335 5.96518 4.63197 5.66671 5.00016 5.66671C5.36835 5.66671 5.66683 5.96518 5.66683 6.33337V10.3334C5.66683 10.7016 5.36835 11 5.00016 11C4.63197 11 4.3335 10.7016 4.3335 10.3334ZM8.3335 6.33337V10.3334C8.3335 10.7016 8.63197 11 9.00016 11C9.36835 11 9.66683 10.7016 9.66683 10.3334V6.33337C9.66683 5.96518 9.36835 5.66671 9.00016 5.66671C8.63197 5.66671 8.3335 5.96518 8.3335 6.33337Z" fill="white"/>
</svg>
