<svg width="28" height="28" viewBox="0 0 28 28" fill="none" xmlns="http://www.w3.org/2000/svg">
<path d="M26.9469 25.0533C27.1993 25.3036 27.3413 25.6444 27.3413 26C27.3413 26.3555 27.1993 26.6963 26.9469 26.9466C26.6966 27.199 26.3558 27.341 26.0002 27.341C25.6447 27.341 25.3039 27.199 25.0536 26.9466L14.0002 15.88L2.94691 26.9466C2.69656 27.199 2.35576 27.341 2.00024 27.341C1.64473 27.341 1.30393 27.199 1.05358 26.9466C0.801161 26.6963 0.65918 26.3555 0.65918 26C0.65918 25.6444 0.801161 25.3036 1.05358 25.0533L12.1202 14L1.05358 2.94662C0.715366 2.60841 0.583279 2.11545 0.707073 1.65345C0.830867 1.19144 1.19173 0.830575 1.65374 0.706781C2.11575 0.582987 2.6087 0.715074 2.94691 1.05329L14.0002 12.12L25.0536 1.05329C25.5764 0.530456 26.4241 0.530456 26.9469 1.05329C27.4697 1.57612 27.4697 2.42379 26.9469 2.94662L15.8802 14L26.9469 25.0533Z" fill="white"/>
</svg>
