<svg width="15" height="12" viewBox="0 0 15 12" fill="none" xmlns="http://www.w3.org/2000/svg">
<path fill-rule="evenodd" clip-rule="evenodd" d="M7.64678 0.833008C10.3485 0.833008 12.8639 2.55301 14.7272 5.67301C14.8552 5.87928 14.8552 6.13341 14.7272 6.33967C12.8639 9.45967 10.3485 11.1797 7.64678 11.1797C4.94505 11.1797 2.43681 9.45967 0.57355 6.33967C0.445535 6.13341 0.445535 5.87928 0.57355 5.67301C2.43681 2.55301 4.94505 0.833008 7.64678 0.833008ZM2.04266 5.97967C2.26253 6.33306 2.50173 6.67573 2.7593 7.00634C2.58736 6.33124 2.58736 5.62811 2.7593 4.95301C2.50173 5.28362 2.26253 5.62629 2.04266 5.97967ZM7.64678 9.33301C5.66783 9.33301 4.06358 7.84062 4.06358 5.99967C4.06358 4.15873 5.66783 2.66634 7.64678 2.66634C9.62572 2.66634 11.23 4.15873 11.23 5.99967C11.23 7.84062 9.62572 9.33301 7.64678 9.33301ZM13.2509 5.99967C13.0326 5.64322 12.7934 5.29826 12.5343 4.96634C12.7063 5.64593 12.7063 6.35342 12.5343 7.03301C12.7934 6.70109 13.0326 6.35612 13.2509 5.99967Z" fill="#231F20"/>
</svg>
