<svg width="14" height="14" viewBox="0 0 14 14" fill="none" xmlns="http://www.w3.org/2000/svg">
<path fill-rule="evenodd" clip-rule="evenodd" d="M8.33301 2.99967H0.999674C0.631485 2.99967 0.333008 2.7012 0.333008 2.33301C0.333008 1.96482 0.631485 1.66634 0.999674 1.66634H8.33301C8.33301 0.929962 8.92996 0.333008 9.66634 0.333008H10.9997C11.7361 0.333008 12.333 0.929962 12.333 1.66634H12.9997C13.3679 1.66634 13.6663 1.96482 13.6663 2.33301C13.6663 2.7012 13.3679 2.99967 12.9997 2.99967H12.333C12.333 3.73605 11.7361 4.33301 10.9997 4.33301H9.66634C8.92996 4.33301 8.33301 3.73605 8.33301 2.99967ZM10.9997 1.66634H9.66634V2.99967H10.9997V2.33301V1.66634ZM12.9997 6.33301H6.99967C6.99967 5.59663 6.40272 4.99967 5.66634 4.99967H4.33301C3.59663 4.99967 2.99967 5.59663 2.99967 6.33301H0.999674C0.631485 6.33301 0.333008 6.63148 0.333008 6.99967C0.333008 7.36786 0.631485 7.66634 0.999674 7.66634H2.99967C2.99967 8.40272 3.59663 8.99967 4.33301 8.99967H5.66634C6.40272 8.99967 6.99967 8.40272 6.99967 7.66634H12.9997C13.3679 7.66634 13.6663 7.36786 13.6663 6.99967C13.6663 6.63148 13.3679 6.33301 12.9997 6.33301ZM4.33301 6.33301V7.66634H5.66634V6.99967V6.33301H4.33301ZM12.9997 10.9997H10.9997C10.9997 10.2633 10.4027 9.66634 9.66634 9.66634H8.33301C7.59663 9.66634 6.99967 10.2633 6.99967 10.9997H0.999674C0.631485 10.9997 0.333008 11.2982 0.333008 11.6663C0.333008 12.0345 0.631485 12.333 0.999674 12.333H6.99967C6.99967 13.0694 7.59663 13.6663 8.33301 13.6663H9.66634C10.4027 13.6663 10.9997 13.0694 10.9997 12.333H12.9997C13.3679 12.333 13.6663 12.0345 13.6663 11.6663C13.6663 11.2982 13.3679 10.9997 12.9997 10.9997ZM8.33301 10.9997V12.333H9.66634V11.6663V10.9997H8.33301Z" fill="#231F20"/>
</svg>
