<svg width="13" height="14" viewBox="0 0 13 14" fill="none" xmlns="http://www.w3.org/2000/svg">
<path fill-rule="evenodd" clip-rule="evenodd" d="M9.31203 8.93301L12.7261 12.5263C12.8458 12.6515 12.9132 12.8219 12.9132 12.9997C12.9132 13.1774 12.8458 13.3478 12.7261 13.473C12.6074 13.5992 12.4458 13.6702 12.2772 13.6702C12.1087 13.6702 11.9471 13.5992 11.8284 13.473L8.42057 9.87301C7.53698 10.6043 6.44586 11.0011 5.32258 10.9997C2.52916 10.9997 0.264648 8.61186 0.264648 5.66634C0.264648 2.72082 2.52916 0.333008 5.32258 0.333008C8.116 0.333008 10.3805 2.72082 10.3805 5.66634C10.3819 6.85078 10.0056 8.00131 9.31203 8.93301ZM5.32258 1.66634C3.22752 1.66634 1.52913 3.4572 1.52913 5.66634C1.52913 7.87548 3.22752 9.66634 5.32258 9.66634C7.41765 9.66634 9.11603 7.87548 9.11603 5.66634C9.11603 3.4572 7.41765 1.66634 5.32258 1.66634Z" fill="#231F20"/>
</svg>
