<svg width="16" height="16" viewBox="0 0 16 16" fill="none" xmlns="http://www.w3.org/2000/svg">
<path fill-rule="evenodd" clip-rule="evenodd" d="M5.86571 13.5231L15.2371 4.15076C15.8783 3.5532 16.1423 2.65325 15.9254 1.80396C15.7085 0.954671 15.0454 0.291498 14.1962 0.0746044C13.347 -0.142289 12.4472 0.121689 11.8497 0.762981L2.4543 10.1593C2.39421 10.2211 2.34311 10.291 2.3025 10.367L0.081494 14.8494C-0.03996 15.0973 -0.0248569 15.3904 0.121439 15.6245C0.267735 15.8586 0.524496 16.0006 0.800526 16C0.932344 15.9969 1.06134 15.9612 1.17602 15.8961L5.65799 13.6749C5.73401 13.6343 5.80393 13.5832 5.86571 13.5231ZM15.1815 16.0004C15.6228 16.0004 15.9804 15.6426 15.9804 15.2013C15.9804 14.7601 15.6228 14.4023 15.1815 14.4023H7.9912C7.54996 14.4023 7.19227 14.7601 7.19227 15.2013C7.19227 15.6426 7.54996 16.0004 7.9912 16.0004H15.1815ZM11.4406 5.68519L10.3141 4.55859L3.699 11.2063L2.5885 13.4435L4.79353 12.3009L11.4406 5.68519ZM13.5552 1.61719C13.7741 1.61719 13.9835 1.70709 14.1344 1.86588C14.2901 2.01999 14.3757 2.23127 14.3711 2.4503C14.3666 2.66934 14.2723 2.8769 14.1104 3.02444L12.5685 4.55852L11.442 3.43193L12.9759 1.86588C13.1268 1.70709 13.3362 1.61719 13.5552 1.61719Z" fill="#231F20"/>
</svg>
