<svg width="18" height="18" viewBox="0 0 18 18" fill="none" xmlns="http://www.w3.org/2000/svg">
<path d="M8.99984 0.666626C4.40487 0.666626 0.666504 4.40499 0.666504 8.99996C0.666504 13.5949 4.40486 17.3333 8.99984 17.3333C13.5948 17.3333 17.3332 13.5949 17.3332 8.99996C17.3332 4.40499 13.5948 0.666626 8.99984 0.666626V0.666626ZM8.99984 1.91663C12.9193 1.91663 16.0832 5.08054 16.0832 8.99996C16.0832 12.9194 12.9193 16.0833 8.99984 16.0833C5.08041 16.0833 1.9165 12.9194 1.9165 8.99996C1.9165 5.08054 5.08041 1.91663 8.99984 1.91663V1.91663ZM8.99984 4.41663C7.62656 4.41663 6.49984 5.54335 6.49984 6.91663V7.12496C6.49665 7.35036 6.61507 7.56001 6.80976 7.67364C7.00445 7.78727 7.24523 7.78727 7.43992 7.67364C7.6346 7.56001 7.75303 7.35036 7.74984 7.12496V6.91663C7.74984 6.21907 8.30228 5.66663 8.99984 5.66663C9.69739 5.66663 10.2498 6.21907 10.2498 6.91663C10.2498 7.89201 9.99624 8.01423 9.5516 8.36357C9.32928 8.53824 9.03807 8.73963 8.78906 9.0789C8.54005 9.41817 8.37484 9.8911 8.37484 10.4583C8.37165 10.6837 8.49007 10.8933 8.68476 11.007C8.87945 11.1206 9.12023 11.1206 9.31492 11.007C9.50961 10.8933 9.62803 10.6837 9.62484 10.4583C9.62484 10.1028 9.694 9.95837 9.79655 9.81864C9.89911 9.67892 10.0767 9.54025 10.3231 9.34664C10.8159 8.95942 11.4998 8.23291 11.4998 6.91663C11.4998 5.54335 10.3731 4.41663 8.99984 4.41663L8.99984 4.41663ZM8.99984 12.3333C8.5396 12.3333 8.1665 12.7064 8.1665 13.1666C8.1665 13.6269 8.5396 14 8.99984 14C9.46008 14 9.83317 13.6269 9.83317 13.1666C9.83317 12.7064 9.46008 12.3333 8.99984 12.3333V12.3333Z" fill="black"/>
</svg>
