<svg width="18" height="18" viewBox="0 0 18 18" fill="none" xmlns="http://www.w3.org/2000/svg">
<path d="M2.75 0C1.24011 0 0 1.24011 0 2.75V15.25C0 16.7599 1.24011 18 2.75 18H11.75C13.2599 18 14.5 16.7599 14.5 15.25C14.5038 14.9795 14.3617 14.7279 14.1281 14.5916C13.8945 14.4552 13.6055 14.4552 13.3719 14.5916C13.1383 14.7279 12.9962 14.9795 13 15.25C13 15.9491 12.4491 16.5 11.75 16.5H2.75C2.05089 16.5 1.5 15.9491 1.5 15.25V2.75C1.5 2.05089 2.05089 1.5 2.75 1.5H11.75C12.4491 1.5 13 2.05089 13 2.75C12.9962 3.02048 13.1383 3.27206 13.3719 3.40842C13.6055 3.54477 13.8945 3.54477 14.1281 3.40842C14.3617 3.27206 14.5038 3.02048 14.5 2.75C14.5 1.24011 13.2599 0 11.75 0H2.75ZM13.7422 4.74219C13.4369 4.74226 13.1621 4.9274 13.0473 5.21033C12.9325 5.49327 13.0007 5.81753 13.2197 6.03027L15.4395 8.25H4.75C4.47952 8.24618 4.22794 8.38828 4.09158 8.62191C3.95523 8.85553 3.95523 9.14447 4.09158 9.3781C4.22794 9.61172 4.47952 9.75383 4.75 9.75H15.4395L13.2197 11.9697C13.0238 12.1578 12.9449 12.4372 13.0134 12.7C13.0819 12.9628 13.2872 13.1681 13.55 13.2366C13.8128 13.3051 14.0922 13.2262 14.2803 13.0303L17.7803 9.53028C18.073 9.23738 18.073 8.76263 17.7803 8.46973L14.2803 4.96973C14.139 4.82428 13.9449 4.7422 13.7422 4.74219V4.74219Z" fill="#EBC71D"/>
</svg>
