<svg width="24" height="24" viewBox="0 0 24 24" fill="none" xmlns="http://www.w3.org/2000/svg">
<path fill-rule="evenodd" clip-rule="evenodd" d="M3 4H21C21.5523 4 22 3.55228 22 3C22 2.44772 21.5523 2 21 2H3C2.44772 2 2 2.44772 2 3C2 3.55228 2.44772 4 3 4ZM22 20C22 20.5523 21.5523 21 21 21H3C2.44772 21 2 20.5523 2 20C2 19.4477 2.44772 19 3 19H21C21.5523 19 22 19.4477 22 20ZM3 11H21C21.5523 11 22 11.4477 22 12C22 12.5523 21.5523 13 21 13H3C2.44772 13 2 12.5523 2 12C2 11.4477 2.44772 11 3 11Z" fill="white"/>
</svg>
