<svg width="16" height="20" viewBox="0 0 16 20" fill="none" xmlns="http://www.w3.org/2000/svg">
<path d="M8 0C5.24746 0 3 2.24746 3 5C3 7.75254 5.24746 10 8 10C10.7525 10 13 7.75254 13 5C13 2.24746 10.7525 0 8 0ZM8 1.5C9.94188 1.5 11.5 3.05812 11.5 5C11.5 6.94188 9.94188 8.5 8 8.5C6.05812 8.5 4.5 6.94188 4.5 5C4.5 3.05812 6.05812 1.5 8 1.5ZM1.98926 12C0.899353 12 0 12.8994 0 13.9893V14.75C0 16.5521 1.13963 17.9461 2.65332 18.7813C4.16701 19.6164 6.08405 20 8 20C9.91595 20 11.833 19.6164 13.3467 18.7813C14.6373 18.0692 15.6087 16.9313 15.8809 15.5H16.001V13.9893C16.001 12.8994 15.1006 12 14.0107 12L1.98926 12ZM1.98926 13.5H14.0107C14.2898 13.5 14.501 13.7102 14.501 13.9893V14H14.5V14.75C14.5 15.9479 13.8271 16.8039 12.6221 17.4688C11.417 18.1336 9.70905 18.5 8 18.5C6.29095 18.5 4.583 18.1336 3.37793 17.4688C2.17287 16.8039 1.5 15.9479 1.5 14.75V13.9893C1.5 13.7102 1.71016 13.5 1.98926 13.5L1.98926 13.5Z" fill="#EBC71D"/>
</svg>
