<svg width="32" height="32" viewBox="0 0 32 32" fill="none" xmlns="http://www.w3.org/2000/svg">
<path fill-rule="evenodd" clip-rule="evenodd" d="M28.4137 12.147L26.667 11.5737L27.4937 9.94698C27.7565 9.43377 27.6597 8.80974 27.2537 8.40032L23.6003 4.73365C23.1909 4.32763 22.5669 4.2308 22.0537 4.49365L20.427 5.33365L19.8537 3.60032C19.6678 3.02787 19.1215 2.6509 18.5203 2.68032H13.4137C12.8125 2.6509 12.2662 3.02787 12.0803 3.60032L11.5737 5.33365L9.94698 4.49365C9.43377 4.2308 8.80974 4.32763 8.40032 4.73365L4.73365 8.40032C4.32763 8.80974 4.2308 9.43377 4.49365 9.94698L5.33365 11.5737L3.60032 12.147C3.02787 12.3328 2.6509 12.8792 2.68032 13.4803V18.6537C2.6509 19.2548 3.02787 19.8011 3.60032 19.987L5.33365 20.5603L4.50698 22.187C4.24413 22.7002 4.34097 23.3242 4.74698 23.7337L8.40032 27.267C8.80974 27.673 9.43377 27.7698 9.94698 27.507L11.5737 26.667L12.147 28.4003C12.3328 28.9728 12.8792 29.3497 13.4803 29.3203H18.6537C19.2548 29.3497 19.8011 28.9728 19.987 28.4003L20.5603 26.667L22.187 27.4937C22.7002 27.7565 23.3242 27.6597 23.7337 27.2537L27.4003 23.587C27.8063 23.1776 27.9032 22.5535 27.6403 22.0403L26.667 20.427L28.4003 19.8537C28.9728 19.6678 29.3497 19.1215 29.3203 18.5203V13.4137C29.3218 12.8404 28.9567 12.3304 28.4137 12.147ZM9.33365 16.0003C9.33365 12.3184 12.3184 9.33365 16.0003 9.33365C17.7684 9.33365 19.4641 10.036 20.7144 11.2863C21.9646 12.5365 22.667 14.2322 22.667 16.0003C22.667 19.6822 19.6822 22.667 16.0003 22.667C12.3184 22.667 9.33365 19.6822 9.33365 16.0003ZM12.0003 16.0003C12.0003 18.2095 13.7912 20.0003 16.0003 20.0003C17.0612 20.0003 18.0786 19.5789 18.8287 18.8287C19.5789 18.0786 20.0003 17.0612 20.0003 16.0003C20.0003 13.7912 18.2095 12.0003 16.0003 12.0003C13.7912 12.0003 12.0003 13.7912 12.0003 16.0003ZM25.8537 17.8937L26.667 17.627V14.3737L25.8537 14.107C25.1134 13.868 24.5144 13.3177 24.2137 12.6003C23.9183 11.8801 23.9523 11.0667 24.307 10.3737L24.6937 9.60032L22.4003 7.30698L21.627 7.69365C20.9339 8.04313 20.1229 8.07325 19.4058 7.77615C18.6886 7.47906 18.1365 6.88424 17.8937 6.14698L17.627 5.33365H14.3737L14.107 6.14698C13.8641 6.88424 13.312 7.47906 12.5949 7.77615C11.8778 8.07325 11.0668 8.04313 10.3737 7.69365L9.60032 7.30698L7.30698 9.60032L7.69365 10.3737C8.04829 11.0667 8.08238 11.8801 7.78698 12.6003C7.48623 13.3177 6.88724 13.868 6.14698 14.107L5.33365 14.3737V17.627L6.14698 17.8937C6.88724 18.1326 7.48623 18.6829 7.78698 19.4003C8.08238 20.1206 8.04829 20.934 7.69365 21.627L7.30698 22.4003L9.60032 24.6937L10.3737 24.307C11.0668 23.9575 11.8778 23.9274 12.5949 24.2245C13.312 24.5216 13.8641 25.1164 14.107 25.8537L14.3737 26.667H17.627L17.8937 25.8537C18.1365 25.1164 18.6886 24.5216 19.4058 24.2245C20.1229 23.9274 20.9339 23.9575 21.627 24.307L22.4003 24.6937L24.6937 22.4003L24.307 21.627C23.9523 20.934 23.9183 20.1206 24.2137 19.4003C24.5144 18.6829 25.1134 18.1326 25.8537 17.8937Z" fill="#E9E9E9"/>
</svg>
