<svg width="20" height="20" viewBox="0 0 20 20" fill="none" xmlns="http://www.w3.org/2000/svg">
<path d="M5.59993 0.5C3.54755 0.5 1.8666 2.07589 1.8666 4C1.8666 5.92411 3.54755 7.5 5.59993 7.5C7.65232 7.5 9.33327 5.92411 9.33327 4C9.33327 2.07589 7.65232 0.5 5.59993 0.5ZM14.1333 0.5C12.0809 0.5 10.3999 2.07589 10.3999 4C10.3999 5.92411 12.0809 7.5 14.1333 7.5C16.1857 7.5 17.8666 5.92411 17.8666 4C17.8666 2.07589 16.1857 0.5 14.1333 0.5ZM5.59993 2C6.78762 2 7.73327 2.88655 7.73327 4C7.73327 5.11345 6.78762 6 5.59993 6C4.41225 6 3.4666 5.11345 3.4666 4C3.4666 2.88655 4.41225 2 5.59993 2ZM14.1333 2C15.321 2 16.2666 2.88655 16.2666 4C16.2666 5.11345 15.321 6 14.1333 6C12.9456 6 11.9999 5.11345 11.9999 4C11.9999 2.88655 12.9456 2 14.1333 2ZM2.13327 8.5C1.10394 8.5 0.266602 9.285 0.266602 10.25V15C0.266602 17.757 2.65913 20 5.59993 20C6.95567 20 8.1914 19.5199 9.13327 18.7354C8.79407 18.3369 8.50778 17.8973 8.28431 17.4258C7.60484 18.0868 6.6538 18.5 5.59993 18.5C3.54127 18.5 1.8666 16.93 1.8666 15V10.25C1.8666 10.112 1.98607 10 2.13327 10H7.74681C7.80174 9.4335 8.03874 8.9155 8.40514 8.5H2.13327ZM10.6666 8.5C9.64529 8.5 8.79994 9.29252 8.79994 10.25V15C8.79994 17.7524 11.1974 20 14.1333 20C17.0692 20 19.4666 17.7524 19.4666 15V10.25C19.4666 9.29252 18.6212 8.5 17.5999 8.5H10.6666ZM10.6666 10H17.5999C17.7573 10 17.8666 10.1025 17.8666 10.25V15C17.8666 16.9416 16.2043 18.5 14.1333 18.5C12.0622 18.5 10.3999 16.9416 10.3999 15V10.25C10.3999 10.1025 10.5092 10 10.6666 10H10.6666Z" fill="#EBC71D"/>
</svg>
