<svg width="16" height="16" viewBox="0 0 16 16" fill="none" xmlns="http://www.w3.org/2000/svg">
<path fill-rule="evenodd" clip-rule="evenodd" d="M5.86571 13.5231L15.2371 4.15076C15.8783 3.5532 16.1423 2.65325 15.9254 1.80396C15.7085 0.954671 15.0454 0.291498 14.1962 0.0746044C13.347 -0.142289 12.4472 0.121689 11.8497 0.762981L2.4543 10.1593C2.39421 10.2211 2.34311 10.291 2.3025 10.367L0.081494 14.8494C-0.03996 15.0973 -0.0248569 15.3904 0.121439 15.6245C0.267735 15.8586 0.524496 16.0006 0.800526 16C0.932344 15.9969 1.06134 15.9612 1.17602 15.8961L5.65799 13.6749C5.73401 13.6343 5.80393 13.5832 5.86571 13.5231ZM15.1811 16C15.6224 16 15.9801 15.6423 15.9801 15.201C15.9801 14.7597 15.6224 14.402 15.1811 14.402H7.99082C7.54959 14.402 7.19189 14.7597 7.19189 15.201C7.19189 15.6423 7.54959 16 7.99082 16H15.1811ZM11.4419 5.68482L10.3154 4.55823L3.70035 11.2059L2.58984 13.4432L4.79488 12.3006L11.4419 5.68482ZM13.5555 1.61694C13.7745 1.61694 13.9839 1.70685 14.1348 1.86563C14.2905 2.01974 14.376 2.23103 14.3715 2.45006C14.367 2.66909 14.2727 2.87666 14.1108 3.02419L12.5689 4.55828L11.4424 3.43168L12.9763 1.86563C13.1272 1.70685 13.3365 1.61694 13.5555 1.61694Z" fill="#231F20"/>
</svg>
