<svg width="19" height="22" viewBox="0 0 19 22" fill="none" xmlns="http://www.w3.org/2000/svg">
<path d="M18.692 19.29C18.8645 19.4777 18.9615 19.7333 18.9615 20C18.9615 20.2666 18.8645 20.5222 18.692 20.71C18.5209 20.8993 18.288 21.0058 18.0451 21.0058C17.8022 21.0058 17.5693 20.8993 17.3982 20.71L9.84518 12.41L2.29215 20.71C2.12107 20.8993 1.8882 21.0058 1.64527 21.0058C1.40233 21.0058 1.16946 20.8993 0.998384 20.71C0.825901 20.5222 0.728882 20.2666 0.728882 20C0.728882 19.7333 0.825901 19.4777 0.998384 19.29L8.56052 11L0.998384 2.70996C0.767275 2.45631 0.677017 2.08659 0.761609 1.74009C0.8462 1.39358 1.09279 1.12293 1.40849 1.03009C1.72419 0.937241 2.06104 1.03631 2.29215 1.28996L9.84518 9.58996L17.3982 1.28996C17.7555 0.897842 18.3347 0.897842 18.692 1.28996C19.0492 1.68209 19.0492 2.31784 18.692 2.70996L11.1298 11L18.692 19.29Z" fill="#231F20"/>
</svg>
