<svg width="14" height="14" viewBox="0 0 14 14" fill="none" xmlns="http://www.w3.org/2000/svg">
<path fill-rule="evenodd" clip-rule="evenodd" d="M0.333008 0.999674C0.333008 0.631485 0.631485 0.333008 0.999674 0.333008H8.99967C9.36786 0.333008 9.66634 0.631485 9.66634 0.999674C9.66634 1.36786 9.36786 1.66634 8.99967 1.66634H0.999674C0.631485 1.66634 0.333008 1.36786 0.333008 0.999674ZM7.66634 4.33301H0.999674C0.631485 4.33301 0.333008 4.63148 0.333008 4.99967C0.333008 5.36786 0.631485 5.66634 0.999674 5.66634H7.66634C8.03453 5.66634 8.33301 5.36786 8.33301 4.99967C8.33301 4.63148 8.03453 4.33301 7.66634 4.33301ZM0.999674 8.33301H6.33301C6.7012 8.33301 6.99967 8.63148 6.99967 8.99967C6.99967 9.36786 6.7012 9.66634 6.33301 9.66634H0.999674C0.631485 9.66634 0.333008 9.36786 0.333008 8.99967C0.333008 8.63148 0.631485 8.33301 0.999674 8.33301ZM4.99967 12.333H0.999674C0.631485 12.333 0.333008 12.6315 0.333008 12.9997C0.333008 13.3679 0.631485 13.6663 0.999674 13.6663H4.99967C5.36786 13.6663 5.66634 13.3679 5.66634 12.9997C5.66634 12.6315 5.36786 12.333 4.99967 12.333ZM12.9997 10.3291C13.1774 10.3291 13.3478 10.4001 13.473 10.5263C13.5992 10.6515 13.6702 10.8219 13.6702 10.9997C13.6702 11.1774 13.5992 11.3478 13.473 11.473L11.473 13.473C11.3478 13.5992 11.1774 13.6702 10.9997 13.6702C10.8219 13.6702 10.6515 13.5992 10.5263 13.473L8.52634 11.473C8.35724 11.3039 8.29119 11.0574 8.35309 10.8264C8.41499 10.5954 8.59542 10.415 8.82642 10.3531C9.05743 10.2912 9.3039 10.3572 9.47301 10.5263L10.333 11.393V0.999674C10.333 0.631485 10.6315 0.333008 10.9997 0.333008C11.3679 0.333008 11.6663 0.631485 11.6663 0.999674V11.393L12.5263 10.5263C12.6515 10.4001 12.8219 10.3291 12.9997 10.3291Z" fill="#231F20"/>
</svg>
